<svg width="220" height="260" viewBox="115 60 200 245" xmlns="http://www.w3.org/2000/svg">
  <!-- Main icon: Grid/table morphing into playful shapes -->
  <g transform="translate(200, 200)">
    <!-- Grid base -->
    <g id="grid">
      <!-- Row 1 -->
      <rect x="-80" y="-80" width="50" height="50" fill="#14b8a6" rx="8"/>
      <rect x="-20" y="-80" width="50" height="50" fill="#2dd4bf" rx="8"/>
      <rect x="40" y="-80" width="50" height="50" fill="#5eead4" rx="8"/>
      
      <!-- Row 2 -->
      <rect x="-80" y="-20" width="50" height="50" fill="#2dd4bf" rx="8"/>
      <circle cx="5" cy="5" r="25" fill="#8b5cf6"/>
      <rect x="40" y="-20" width="50" height="50" fill="#14b8a6" rx="8"/>
      
      <!-- Row 3 -->
      <rect x="-80" y="40" width="50" height="50" fill="#5eead4" rx="8"/>
      <rect x="-20" y="40" width="50" height="50" fill="#14b8a6" rx="8"/>
      <polygon points="65,50 90,65 65,80 40,65" fill="#f59e0b"/>
    </g>
    
    <!-- Playful elements -->
    <!-- Chart bars rising from grid -->
    <g opacity="0.9">
      <rect x="-65" y="-120" width="12" height="35" fill="#14b8a6" rx="3"/>
      <rect x="-50" y="-135" width="12" height="50" fill="#14b8a6" rx="3"/>
      <rect x="-35" y="-110" width="12" height="25" fill="#14b8a6" rx="3"/>
    </g>
    
    <!-- Connecting lines (data flow) -->
    <path d="M -55,-80 Q -30,-120 0,-100" stroke="#8b5cf6" stroke-width="3" fill="none" opacity="0.6" stroke-linecap="round"/>
    <path d="M 5,30 Q 50,50 90,40" stroke="#14b8a6" stroke-width="3" fill="none" opacity="0.6" stroke-linecap="round"/>
  </g>
</svg>